<?xml version="1.0" standalone="no"?>
<!DOCTYPE svg PUBLIC "-//W3C//DTD SVG 20010904//EN"
 "http://www.w3.org/TR/2001/REC-SVG-20010904/DTD/svg10.dtd">
<svg version="1.0" xmlns="http://www.w3.org/2000/svg"
 width="700.000000pt" height="700.000000pt" viewBox="0 0 700.000000 700.000000"
 preserveAspectRatio="xMidYMid meet">
<metadata>
Created by potrace 1.14, written by Peter Selinger 2001-2017
</metadata>
<g transform="translate(0.000000,700.000000) scale(0.100000,-0.100000)"
fill="#000000" stroke="none">
<path d="M1195 6985 c-272 -42 -488 -141 -707 -322 -246 -204 -423 -525 -473
-858 -22 -151 -22 -4459 0 -4610 22 -143 58 -264 120 -391 196 -410 526 -669
995 -781 71 -16 208 -18 2320 -20 2451 -4 2340 -6 2546 53 104 30 285 114 375
174 335 225 555 570 614 965 22 151 22 4459 0 4610 -30 197 -111 411 -216 566
-226 337 -568 554 -964 614 -87 13 -393 15 -2315 14 -1725 -1 -2233 -4 -2295
-14z m3860 -1504 c234 -43 386 -123 478 -253 122 -171 115 -365 -19 -508 -58
-62 -171 -134 -261 -166 -80 -28 -151 -32 -160 -8 -11 28 30 55 106 69 127 25
196 76 243 182 31 71 22 186 -22 273 -74 147 -240 261 -439 302 -82 17 -121
19 -271 15 -204 -6 -336 -30 -550 -100 -165 -54 -272 -107 -379 -187 -285
-215 -329 -508 -109 -728 120 -121 283 -214 748 -427 527 -242 726 -387 835
-609 64 -129 79 -197 72 -326 -6 -127 -30 -210 -98 -339 -133 -254 -364 -492
-684 -704 -290 -192 -630 -314 -1055 -379 -195 -31 -547 -30 -746 0 -736 113
-1182 503 -1211 1059 -10 189 26 338 137 570 144 300 366 543 593 649 59 27
117 32 117 10 0 -8 -45 -53 -99 -100 -244 -210 -409 -502 -478 -841 -25 -129
-25 -422 0 -520 80 -303 328 -535 700 -654 536 -172 1291 -83 1782 210 148 88
228 150 351 273 231 232 345 464 347 706 1 185 -61 338 -188 465 -127 128
-292 220 -720 400 -280 119 -413 184 -531 263 -108 73 -227 194 -271 278 -151
284 -29 609 321 856 214 150 525 249 911 288 140 14 422 4 550 -19z"/>
</g>
</svg>
